<svg width="938.4" height="192.9" xmlns="http://www.w3.org/2000/svg">
 <style type="text/css">.st0{fill:none;stroke:#000000;stroke-width:16;stroke-miterlimit:10;}
	.st1{fill:#F7F7F7;}
	.st2{fill:#232323;}
	.st3{fill:#3C8BCA;}
	.st4{fill:#FFFFFF;}</style>

 <g>
  <title>background</title>
  <rect fill="none" id="canvas_background" height="194.9" width="940.4" y="-1" x="-1"/>
 </g>
 <g>
  <title>Layer 1</title>
  <text id="svg_1" font-family="'Montserrat-Bold'" transform="matrix(1,0,0,1,-1076.4049,-953.5508) ">parasol</text>
  <text id="svg_2" font-family="'Montserrat-Bold'" transform="matrix(1,0,0,1,-1678.8835,-684.5502) ">Parasol</text>
  <g id="svg_3">
   <path id="svg_4" d="m-1127,-771.3c17.1,0 26.9,8.4 26.9,23.3c0,15.6 -9.8,24.7 -26.9,24.7l-12.1,0l0,18.8l-17,0l0,-66.7l29.1,0l0,-0.1zm-12.1,34.6l11.2,0c7.4,0 11.7,-3.7 11.7,-10.8c0,-7 -4.3,-10.5 -11.7,-10.5l-11.2,0l0,21.3z"/>
   <path id="svg_5" d="m-1045.9,-738.1l0,33.5l-16.1,0l0,-5.9c-3.3,4.4 -8.8,6.7 -15.7,6.7c-11,0 -17.6,-6.7 -17.6,-16.1c0,-9.7 7,-15.4 19.7,-15.5l13.5,0l0,-0.8c0,-5.1 -3.3,-8.1 -10,-8.1c-4.3,0 -9.9,1.5 -15.3,4.3l-4.7,-10.9c8,-3.7 15.2,-5.8 23.8,-5.8c14.1,0 22.3,7 22.4,18.6zm-16.2,16.1l0,-4.6l-10.4,0c-5,0 -7.4,1.7 -7.4,5.5c0,3.7 2.7,6.1 7.2,6.1c5.2,0.1 9.6,-2.8 10.6,-7z"/>
   <path id="svg_6" d="m-1017.7,-747.2c3.5,-6 9.3,-9.3 16.7,-9.4l0,14.9c-9.5,-0.9 -15.8,3.6 -16.7,10.9l0,26.4l-16.5,0l0,-51.4l16.5,0l0,8.6z"/>
   <path id="svg_7" d="m-949.5,-738.1l0,33.5l-16.1,0l0,-5.9c-3.3,4.4 -8.8,6.7 -15.7,6.7c-11,0 -17.6,-6.7 -17.6,-16.1c0,-9.7 7,-15.4 19.7,-15.5l13.5,0l0,-0.8c0,-5.1 -3.3,-8.1 -10,-8.1c-4.3,0 -9.9,1.5 -15.3,4.3l-4.7,-10.9c8,-3.7 15.2,-5.8 23.8,-5.8c14.2,0 22.4,7 22.4,18.6zm-16.2,16.1l0,-4.6l-10.3,0c-5,0 -7.4,1.7 -7.4,5.5c0,3.7 2.7,6.1 7.2,6.1c5.1,0.1 9.5,-2.8 10.5,-7z"/>
   <path id="svg_8" d="m-898.2,-750.9l-5.6,10.7c-6.2,-3.3 -11.9,-5.1 -16.2,-5.1c-3,0 -5.1,1.1 -5.1,3.5c0,7.1 27.1,3.6 27,21.5c0,10.6 -9.2,16.4 -21.6,16.4c-8.6,0 -16.9,-2.5 -23.1,-7.2l5.2,-10.5c5.8,4.1 12.5,6.4 18.2,6.4c3.2,0 5.6,-1.1 5.6,-3.5c0,-7.5 -26.6,-3.6 -26.5,-21.6c0,-10.6 9,-16.3 20.9,-16.3c7.5,-0.1 14.9,2 21.2,5.7z"/>
   <path id="svg_9" d="m-837,-730.3c0,15.8 -11.2,26.3 -28,26.3c-16.9,0 -28.1,-10.5 -28.1,-26.3c0,-15.8 11.2,-26.2 28.1,-26.2c16.8,0 28,10.4 28,26.2zm-39.5,0.2c0,8 4.7,13.3 11.5,13.3c6.8,0 11.4,-5.3 11.4,-13.3c0,-7.9 -4.7,-13.3 -11.4,-13.3c-6.9,0 -11.5,5.4 -11.5,13.3z"/>
   <path id="svg_10" d="m-827.7,-704.5l0,-70.7l16.5,0l0,70.7l-16.5,0z"/>
  </g>
  <rect id="svg_11" height="66.9" width="15.7" y="-504.6" x="-1384.1"/>
  <path id="svg_12" d="m-1376.3,-439.7c0,20.3 -16.4,36.7 -36.7,36.7s-36.7,-16.4 -36.7,-36.7" class="st0"/>
  <path id="svg_13" d="m-1449.7,-464c0,-42.6 33.7,-77.2 75.2,-77.2s75.2,34.5 75.2,77.2" class="st0"/>
  <rect id="svg_14" height="13.3" width="71.5" y="-477.3" x="-1370.8"/>
  <rect id="svg_15" height="62.7" width="15.3" transform="matrix(-1.83697e-16,1,-1,-1.83697e-16,-1810.3337,866.9999) " y="-503" x="-1346.3"/>
  <rect id="svg_16" height="372" width="615" class="st1" y="-418.4" x="-581.6"/>
  <rect id="svg_17" height="372" width="615" class="st1" y="-415.4" x="-1220.6"/>
  <g id="svg_18">
   <path id="svg_19" d="m-400.8,-278.8c-25.8,0 -46.8,21.5 -46.8,48l9,0c0,-21.5 17,-38.9 37.8,-38.9c18,0 33,13 36.9,30.3l-33.4,0l0,-14.2l-8.9,0l0,36.6l-0.1,0c0,8.9 -7.2,16.1 -16.1,16.1c-8.9,0 -16.1,-7.2 -16.1,-16.1l-9,0c0,13.9 11.3,25.2 25.2,25.2c13.5,0 24.5,-10.7 25.1,-24l0,0l0,-14.8l34.4,0l4.5,0l4.5,0c-0.2,-26.7 -21.2,-48.2 -47,-48.2z" class="st2"/>
   <g id="svg_20">
    <path id="svg_21" d="m-386.5,-212.3c0,0.8 -0.5,1.3 -1.3,1.3s-1.3,-0.5 -1.3,-1.3c0,-0.8 0.5,-1.3 1.3,-1.3s1.3,0.5 1.3,1.3z" class="st2"/>
    <path id="svg_22" d="m-376.3,-220.9l-1,2.1c-1.1,-0.7 -2.6,-1.1 -3.5,-1.1c-0.7,0 -1.2,0.3 -1.2,0.8c0,1.9 5.7,0.8 5.7,4.7c0,2.2 -1.9,3.3 -4.3,3.3c-1.8,0 -3.7,-0.7 -4.9,-1.7l1.1,-2.1c1.1,1 2.8,1.6 3.9,1.6c0.9,0 1.4,-0.3 1.4,-0.9c0,-1.9 -5.7,-0.8 -5.7,-4.6c0,-2 1.7,-3.3 4.3,-3.3c1.5,0 3,0.5 4.2,1.2z" class="st2"/>
    <path id="svg_23" d="m-363.7,-216.6c0,3.2 -2.5,5.5 -5.9,5.5c-3.3,0 -5.8,-2.4 -5.8,-5.5c0,-3.2 2.5,-5.5 5.8,-5.5c3.4,0 5.9,2.4 5.9,5.5zm-8.9,0c0,1.8 1.4,3.2 3.1,3.2c1.7,0 3,-1.4 3,-3.2c0,-1.8 -1.3,-3.2 -3,-3.2c-1.7,0 -3.1,1.4 -3.1,3.2z" class="st2"/>
    <path id="svg_24" d="m-354.7,-213.5l0,2.3l-7.3,0l0,-10.8l2.7,0l0,8.5l4.6,0z" class="st2"/>
   </g>
   <g id="svg_25">
    <path id="svg_26" d="m-464.9,-186.2c7.5,0 11.8,3.7 11.8,10.2c0,6.9 -4.3,10.8 -11.8,10.8l-5.3,0l0,8.2l-7.5,0l0,-29.3l12.8,0l0,0.1zm-5.3,15.2l4.9,0c3.3,0 5.1,-1.6 5.1,-4.7c0,-3.1 -1.9,-4.6 -5.1,-4.6l-4.9,0l0,9.3z" class="st2"/>
    <path id="svg_27" d="m-429.3,-171.7l0,14.7l-7.1,0l0,-2.6c-1.5,1.9 -3.9,2.9 -6.9,2.9c-4.8,0 -7.7,-2.9 -7.7,-7.1c0,-4.3 3.1,-6.8 8.7,-6.8l5.9,0l0,-0.3c0,-2.2 -1.5,-3.6 -4.4,-3.6c-1.9,0 -4.4,0.7 -6.7,1.9l-2.1,-4.8c3.5,-1.6 6.7,-2.6 10.5,-2.6c6.2,0.2 9.8,3.2 9.8,8.3zm-7.1,7.1l0,-2l-4.6,0c-2.2,0 -3.3,0.8 -3.3,2.4c0,1.6 1.2,2.7 3.2,2.7c2.3,0 4.3,-1.2 4.7,-3.1z" class="st2"/>
    <path id="svg_28" d="m-416.9,-175.7c1.5,-2.6 4.1,-4.1 7.3,-4.1l0,6.5c-4.2,-0.4 -6.9,1.6 -7.3,4.8l0,11.6l-7.2,0l0,-22.6l7.2,0l0,3.8z" class="st2"/>
    <path id="svg_29" d="m-386.9,-171.7l0,14.7l-7.1,0l0,-2.6c-1.5,1.9 -3.9,2.9 -6.9,2.9c-4.8,0 -7.7,-2.9 -7.7,-7.1c0,-4.3 3.1,-6.8 8.7,-6.8l5.9,0l0,-0.3c0,-2.2 -1.5,-3.6 -4.4,-3.6c-1.9,0 -4.4,0.7 -6.7,1.9l-2.1,-4.8c3.5,-1.6 6.7,-2.6 10.5,-2.6c6.2,0.2 9.8,3.2 9.8,8.3zm-7.1,7.1l0,-2l-4.6,0c-2.2,0 -3.3,0.8 -3.3,2.4c0,1.6 1.2,2.7 3.2,2.7c2.3,0 4.2,-1.2 4.7,-3.1z" class="st2"/>
    <path id="svg_30" d="m-364.4,-177.3l-2.5,4.7c-2.7,-1.5 -5.2,-2.3 -7.1,-2.3c-1.3,0 -2.2,0.5 -2.2,1.5c0,3.1 11.9,1.6 11.8,9.5c0,4.6 -4.1,7.2 -9.5,7.2c-3.8,0 -7.4,-1.1 -10.1,-3.2l2.3,-4.6c2.6,1.8 5.5,2.8 8,2.8c1.4,0 2.5,-0.5 2.5,-1.5c0,-3.3 -11.7,-1.6 -11.6,-9.5c0,-4.6 3.9,-7.2 9.2,-7.2c3.2,0.1 6.5,1 9.2,2.6z" class="st2"/>
    <path id="svg_31" d="m-337.5,-168.2c0,6.9 -4.9,11.6 -12.3,11.6c-7.4,0 -12.4,-4.6 -12.4,-11.6c0,-6.9 4.9,-11.5 12.4,-11.5c7.4,0 12.3,4.5 12.3,11.5zm-17.4,0.1c0,3.5 2.1,5.9 5.1,5.9c3,0 5,-2.3 5,-5.9c0,-3.5 -2.1,-5.9 -5,-5.9c-3,0 -5.1,2.4 -5.1,5.9z" class="st2"/>
    <path id="svg_32" d="m-333.4,-156.9l0,-31.1l7.2,0l0,31.1l-7.2,0z" class="st2"/>
   </g>
   <g id="svg_33">
    <path id="svg_34" d="m206.1,-186.2c7.5,0 11.8,3.7 11.8,10.2c0,6.9 -4.3,10.8 -11.8,10.8l-5.3,0l0,8.2l-7.5,0l0,-29.3l12.8,0l0,0.1zm-5.3,15.2l4.9,0c3.3,0 5.1,-1.6 5.1,-4.7c0,-3.1 -1.9,-4.6 -5.1,-4.6l-4.9,0l0,9.3z" class="st2"/>
    <path id="svg_35" d="m241.7,-171.7l0,14.7l-7.1,0l0,-2.6c-1.5,1.9 -3.9,2.9 -6.9,2.9c-4.8,0 -7.7,-2.9 -7.7,-7.1c0,-4.3 3.1,-6.8 8.7,-6.8l5.9,0l0,-0.3c0,-2.2 -1.5,-3.6 -4.4,-3.6c-1.9,0 -4.4,0.7 -6.7,1.9l-2.1,-4.8c3.5,-1.6 6.7,-2.6 10.5,-2.6c6.2,0.2 9.8,3.2 9.8,8.3zm-7.1,7.1l0,-2l-4.6,0c-2.2,0 -3.3,0.8 -3.3,2.4c0,1.6 1.2,2.7 3.2,2.7c2.3,0 4.3,-1.2 4.7,-3.1z" class="st2"/>
    <path id="svg_36" d="m254.1,-175.7c1.5,-2.6 4.1,-4.1 7.3,-4.1l0,6.5c-4.2,-0.4 -6.9,1.6 -7.3,4.8l0,11.6l-7.2,0l0,-22.6l7.2,0l0,3.8z" class="st2"/>
    <path id="svg_37" d="m284.1,-171.7l0,14.7l-7.1,0l0,-2.6c-1.5,1.9 -3.9,2.9 -6.9,2.9c-4.8,0 -7.7,-2.9 -7.7,-7.1c0,-4.3 3.1,-6.8 8.7,-6.8l5.9,0l0,-0.3c0,-2.2 -1.5,-3.6 -4.4,-3.6c-1.9,0 -4.4,0.7 -6.7,1.9l-2.1,-4.8c3.5,-1.6 6.7,-2.6 10.5,-2.6c6.2,0.2 9.8,3.2 9.8,8.3zm-7.1,7.1l0,-2l-4.6,0c-2.2,0 -3.3,0.8 -3.3,2.4c0,1.6 1.2,2.7 3.2,2.7c2.3,0 4.2,-1.2 4.7,-3.1z" class="st2"/>
    <path id="svg_38" d="m306.6,-177.3l-2.5,4.7c-2.7,-1.5 -5.2,-2.3 -7.1,-2.3c-1.3,0 -2.2,0.5 -2.2,1.5c0,3.1 11.9,1.6 11.8,9.5c0,4.6 -4.1,7.2 -9.5,7.2c-3.8,0 -7.4,-1.1 -10.1,-3.2l2.3,-4.6c2.6,1.8 5.5,2.8 8,2.8c1.4,0 2.5,-0.5 2.5,-1.5c0,-3.3 -11.7,-1.6 -11.6,-9.5c0,-4.6 3.9,-7.2 9.2,-7.2c3.2,0.1 6.5,1 9.2,2.6z" class="st2"/>
    <path id="svg_39" d="m333.5,-168.2c0,6.9 -4.9,11.6 -12.3,11.6c-7.4,0 -12.4,-4.6 -12.4,-11.6c0,-6.9 4.9,-11.5 12.4,-11.5c7.4,0 12.3,4.5 12.3,11.5zm-17.4,0.1c0,3.5 2.1,5.9 5.1,5.9c3,0 5,-2.3 5,-5.9c0,-3.5 -2.1,-5.9 -5,-5.9c-3,0 -5.1,2.4 -5.1,5.9z" class="st2"/>
    <path id="svg_40" d="m337.6,-156.9l0,-31.1l7.2,0l0,31.1l-7.2,0z" class="st2"/>
   </g>
  </g>
  <g id="svg_41">
   <path id="svg_42" d="m-163.1,-212c-4.6,2.3 -9.9,3.5 -15.3,3.5c-5.7,0 -11.3,-1.4 -16.1,-4c-9.6,-5.3 -22.8,-5.3 -32.3,0c-1.4,0.8 -2.8,1.4 -4.2,1.9c-0.7,0.3 -1.5,0.5 -2.2,0.7c-0.5,0.2 -1.1,0.3 -1.7,0.5l0,0.2c-5.8,1.8 -13.5,0.5 -16.1,0l0,-0.1c-0.8,-0.2 -1.6,-0.4 -2.5,-0.7c-2,-0.6 -3.9,-1.4 -5.6,-2.4c-9.6,-5.3 -22.8,-5.3 -32.3,0c-9.3,5.2 -22,5.3 -31.4,0.4c5.1,-36.1 34.7,-64.6 71.7,-68.2l0,-0.4c0,-4.4 3.6,-8 8.1,-8c4.4,0 8.1,3.6 8.1,8l0,0.4c37,3.5 66.7,32 71.8,68.2z" class="st3"/>
  </g>
  <g id="svg_43">
   <g id="svg_44">
    <path id="svg_45" d="m-249.5,-205.8c-4,0 -7.6,-0.6 -9.5,-1l-2,-0.4l0,-0.3c-0.2,-0.1 -0.5,-0.1 -0.7,-0.2c-2.3,-0.7 -4.3,-1.6 -6.1,-2.6c-8.8,-4.8 -21.1,-4.8 -29.8,0c-10,5.6 -23.5,5.7 -33.8,0.4l-1.6,-0.8l0.2,-1.8c2.5,-18 11.3,-35 24.6,-47.7c12.9,-12.3 29.6,-20.2 47.2,-22.4c0.9,-4.9 5.2,-8.6 10.4,-8.6s9.5,3.7 10.4,8.6c17.7,2.2 34.4,10.1 47.3,22.4c13.4,12.7 22.1,29.7 24.7,47.8l0.3,1.8l-1.6,0.8c-4.9,2.5 -10.6,3.8 -16.5,3.8c-6.2,0 -12.2,-1.5 -17.3,-4.3c-8.9,-4.9 -21.1,-4.9 -29.9,0c-1.4,0.8 -2.9,1.5 -4.6,2.1c-0.7,0.3 -1.4,0.5 -2.2,0.7l0,0.1l-1.8,0.5c-2.4,0.8 -5.1,1.1 -7.7,1.1zm-6.9,-5.6c2.7,0.4 7.5,1 11.5,0.2l0,-0.2l1.9,-0.5c0.5,-0.1 1,-0.3 1.6,-0.4c0.8,-0.2 1.4,-0.4 2.1,-0.7c1.4,-0.5 2.7,-1.1 3.8,-1.8c10.3,-5.8 24.3,-5.8 34.8,0c4.4,2.4 9.5,3.7 14.9,3.7c4.4,0 8.8,-0.9 12.6,-2.5c-5.7,-34.5 -33.9,-60.8 -69.3,-64.3l-2.3,-0.2l0,-2.6c0,-3 -2.5,-5.5 -5.6,-5.5c-3.1,0 -5.6,2.5 -5.6,5.5l0,2.6l-2.3,0.2c-35.3,3.5 -63.5,29.8 -69.2,64.3c8.5,3.7 19.5,3.3 27.4,-1.1c10.3,-5.7 24.3,-5.7 34.7,0c1.5,0.9 3.2,1.6 5.2,2.2c0.7,0.2 1.4,0.4 2.3,0.7l1.5,0.4z" class="st2"/>
   </g>
  </g>
  <g id="svg_46">
   <path id="svg_47" d="m-285.1,-227.7c0,1.6 -1.1,2.7 -2.7,2.7c-1.6,0 -2.7,-1.1 -2.7,-2.7c0,-1.6 1.1,-2.7 2.7,-2.7c1.5,0 2.7,1.1 2.7,2.7z" class="st2"/>
   <path id="svg_48" d="m-263.9,-245.6l-2.2,4.5c-2.4,-1.4 -5.4,-2.4 -7.2,-2.4c-1.5,0 -2.5,0.5 -2.5,1.6c0,3.9 12,1.7 12,9.9c0,4.5 -4,6.9 -9,6.9c-3.8,0 -7.7,-1.4 -10.3,-3.6l2.2,-4.4c2.3,2 5.8,3.4 8.2,3.4c1.8,0 2.9,-0.7 2.9,-2c0,-4 -12,-1.6 -12,-9.6c0,-4.2 3.6,-6.8 9,-6.8c3.3,0 6.6,1 8.9,2.5z" class="st2"/>
   <path id="svg_49" d="m-237.4,-236.6c0,6.6 -5.2,11.6 -12.2,11.6c-7,0 -12.2,-5 -12.2,-11.6c0,-6.6 5.2,-11.5 12.2,-11.5c7,0 12.2,4.9 12.2,11.5zm-18.6,0c0,3.8 2.9,6.8 6.4,6.8c3.5,0 6.3,-2.9 6.3,-6.8c0,-3.8 -2.8,-6.7 -6.3,-6.7c-3.5,0 -6.4,2.9 -6.4,6.7z" class="st2"/>
   <path id="svg_50" d="m-218.7,-230.1l0,4.8l-15.3,0l0,-22.6l5.7,0l0,17.8l9.6,0z" class="st2"/>
  </g>
  <path id="svg_51" d="m-845.5,-259c0,-36.7 -29.9,-66.6 -66.6,-66.6l-12,0c-36.7,0 -66.6,29.9 -66.6,66.6l0,7.5l15.3,0l0,-7.5c0,-28.3 23.1,-51.4 51.4,-51.4l12,0c25.7,0 47.1,19 50.8,43.8l-50.8,0l0,-19.3l-15.3,0l0,57.5c0,13.2 -10.7,23.9 -23.9,23.9s-23.9,-10.7 -23.9,-23.9l0,-2l-15.3,0l0,2c0,21.6 17.6,39.2 39.2,39.2c21.6,0 39.2,-17.6 39.2,-39.2l0,-22.9l66.6,0l0,-7.7l-0.1,0z" class="st2"/>
  <g id="svg_52">
   <path id="svg_53" d="m-893.8,-221.6c0,1.2 -0.8,2 -2,2s-2,-0.8 -2,-2c0,-1.2 0.8,-2 2,-2s2,0.9 2,2z" class="st2"/>
   <path id="svg_54" d="m-878.3,-234.6l-1.6,3.3c-1.7,-1 -3.9,-1.7 -5.3,-1.7c-1.1,0 -1.8,0.4 -1.8,1.2c0,2.9 8.7,1.2 8.7,7.2c0,3.3 -2.9,5 -6.6,5c-2.8,0 -5.6,-1 -7.5,-2.6l1.6,-3.2c1.7,1.5 4.2,2.5 6,2.5c1.3,0 2.1,-0.5 2.1,-1.4c0,-2.9 -8.7,-1.2 -8.7,-7c0,-3 2.6,-5 6.6,-5c2.4,-0.2 4.8,0.6 6.5,1.7z" class="st2"/>
   <path id="svg_55" d="m-859,-228.1c0,4.8 -3.8,8.5 -8.9,8.5c-5.1,0 -8.9,-3.6 -8.9,-8.5c0,-4.8 3.8,-8.4 8.9,-8.4c5.1,0.1 8.9,3.7 8.9,8.4zm-13.5,0.1c0,2.8 2.1,4.9 4.7,4.9c2.5,0 4.6,-2.1 4.6,-4.9c0,-2.8 -2,-4.9 -4.6,-4.9c-2.6,0 -4.7,2.1 -4.7,4.9z" class="st2"/>
   <path id="svg_56" d="m-845.3,-223.3l0,3.5l-11.2,0l0,-16.5l4.2,0l0,13l7,0z" class="st2"/>
  </g>
  <g id="svg_57">
   <path id="svg_58" d="m-977.1,-177.8c7,0 11.1,3.4 11.1,9.6c0,6.4 -4,10.2 -11.1,10.2l-5,0l0,7.7l-7,0l0,-27.4l12,0l0,-0.1zm-5,14.3l4.6,0c3.1,0 4.8,-1.5 4.8,-4.4c0,-2.9 -1.8,-4.3 -4.8,-4.3l-4.6,0l0,8.7z" class="st2"/>
   <path id="svg_59" d="m-943.8,-164.1l0,13.8l-6.6,0l0,-2.4c-1.4,1.8 -3.6,2.7 -6.5,2.7c-4.5,0 -7.3,-2.7 -7.3,-6.6c0,-4 2.9,-6.3 8.1,-6.4l5.6,0l0,-0.3c0,-2.1 -1.4,-3.3 -4.1,-3.3c-1.8,0 -4.1,0.6 -6.3,1.8l-1.9,-4.5c3.3,-1.5 6.3,-2.4 9.8,-2.4c5.8,-0.1 9.2,2.8 9.2,7.6zm-6.7,6.6l0,-1.9l-4.3,0c-2,0 -3.1,0.7 -3.1,2.3c0,1.5 1.1,2.5 3,2.5c2.2,0 4,-1.2 4.4,-2.9z" class="st2"/>
   <path id="svg_60" d="m-932.2,-167.9c1.5,-2.5 3.8,-3.8 6.9,-3.9l0,6.1c-3.9,-0.4 -6.5,1.5 -6.9,4.5l0,10.9l-6.8,0l0,-21.1l6.8,0l0,3.5z" class="st2"/>
   <path id="svg_61" d="m-904.1,-164.1l0,13.8l-6.6,0l0,-2.4c-1.4,1.8 -3.6,2.7 -6.5,2.7c-4.5,0 -7.3,-2.7 -7.3,-6.6c0,-4 2.9,-6.3 8.1,-6.4l5.6,0l0,-0.3c0,-2.1 -1.4,-3.3 -4.1,-3.3c-1.8,0 -4.1,0.6 -6.3,1.8l-1.9,-4.5c3.3,-1.5 6.3,-2.4 9.8,-2.4c5.8,-0.1 9.1,2.8 9.2,7.6zm-6.7,6.6l0,-1.9l-4.3,0c-2,0 -3.1,0.7 -3.1,2.3c0,1.5 1.1,2.5 3,2.5c2.2,0 4,-1.2 4.4,-2.9z" class="st2"/>
   <path id="svg_62" d="m-883,-169.4l-2.3,4.4c-2.5,-1.4 -4.9,-2.1 -6.7,-2.1c-1.2,0 -2.1,0.5 -2.1,1.5c0,2.9 11.1,1.5 11.1,8.9c0,4.4 -3.8,6.7 -8.9,6.7c-3.5,0 -6.9,-1 -9.5,-3l2.2,-4.3c2.4,1.7 5.1,2.6 7.5,2.6c1.3,0 2.3,-0.5 2.3,-1.5c0,-3.1 -10.9,-1.5 -10.9,-8.9c0,-4.4 3.7,-6.7 8.6,-6.7c3,0 6.1,0.9 8.7,2.4z" class="st2"/>
   <path id="svg_63" d="m-857.9,-160.9c0,6.5 -4.6,10.8 -11.5,10.8c-6.9,0 -11.6,-4.3 -11.6,-10.8c0,-6.5 4.6,-10.8 11.6,-10.8c6.9,0 11.5,4.3 11.5,10.8zm-16.2,0.1c0,3.3 1.9,5.5 4.7,5.5c2.8,0 4.7,-2.2 4.7,-5.5c0,-3.3 -1.9,-5.5 -4.7,-5.5c-2.8,0 -4.7,2.2 -4.7,5.5z" class="st2"/>
   <path id="svg_64" d="m-854,-150.3l0,-29.1l6.8,0l0,29.1l-6.8,0z" class="st2"/>
  </g>
  <path id="svg_65" d="m-1068.8,22.2c0,-6.6 -5.3,-11.9 -11.9,-11.9l-2.1,0c-6.6,0 -11.9,5.3 -11.9,11.9l0,1.3l2.7,0l0,-1.3c0,-5.1 4.1,-9.2 9.2,-9.2l2.1,0c4.6,0 8.4,3.4 9.1,7.8l-9.1,0l0,-3.4l-2.7,0l0,10.3c0,2.4 -1.9,4.3 -4.3,4.3c-2.4,0 -4.3,-1.9 -4.3,-4.3l0,-0.4l-2.7,0l0,0.4c0,3.9 3.1,7 7,7c3.9,0 7,-3.1 7,-7l0,-4.1l11.9,0l0,-1.4z" class="st2"/>
  <g id="svg_66">
   <path id="svg_67" d="m-1077.4,28.9c0,0.2 -0.1,0.4 -0.4,0.4c-0.2,0 -0.3,-0.1 -0.3,-0.4c0,-0.2 0.1,-0.3 0.3,-0.3c0.3,-0.1 0.4,0 0.4,0.3z" class="st2"/>
   <path id="svg_68" d="m-1074.6,26.5l-0.3,0.6c-0.3,-0.2 -0.7,-0.3 -0.9,-0.3c-0.2,0 -0.3,0.1 -0.3,0.2c0,0.5 1.6,0.2 1.6,1.3c0,0.6 -0.5,0.9 -1.2,0.9c-0.5,0 -1,-0.2 -1.3,-0.5l0.3,-0.6c0.3,0.3 0.8,0.4 1.1,0.4c0.2,0 0.4,-0.1 0.4,-0.3c0,-0.5 -1.6,-0.2 -1.6,-1.3c0,-0.5 0.5,-0.9 1.2,-0.9c0.2,0.2 0.7,0.3 1,0.5z" class="st2"/>
   <path id="svg_69" d="m-1071.2,27.7c0,0.9 -0.7,1.5 -1.6,1.5c-0.9,0 -1.6,-0.6 -1.6,-1.5c0,-0.9 0.7,-1.5 1.6,-1.5c0.9,0 1.6,0.6 1.6,1.5zm-2.4,0c0,0.5 0.4,0.9 0.8,0.9c0.5,0 0.8,-0.4 0.8,-0.9c0,-0.5 -0.4,-0.9 -0.8,-0.9c-0.4,0 -0.8,0.4 -0.8,0.9z" class="st2"/>
   <path id="svg_70" d="m-1068.8,28.5l0,0.6l-2,0l0,-2.9l0.7,0l0,2.3l1.3,0z" class="st2"/>
  </g>
  <g id="svg_71">
   <path id="svg_72" d="m-1092.3,36.7c1.3,0 2,0.6 2,1.7c0,1.1 -0.7,1.8 -2,1.8l-0.9,0l0,1.4l-1.2,0l0,-4.9l2.1,0zm-0.8,2.5l0.8,0c0.5,0 0.9,-0.3 0.9,-0.8c0,-0.5 -0.3,-0.8 -0.9,-0.8l-0.8,0l0,1.6z" class="st2"/>
   <path id="svg_73" d="m-1086.3,39.1l0,2.5l-1.2,0l0,-0.4c-0.2,0.3 -0.6,0.5 -1.2,0.5c-0.8,0 -1.3,-0.5 -1.3,-1.2c0,-0.7 0.5,-1.1 1.4,-1.1l1,0l0,-0.1c0,-0.4 -0.2,-0.6 -0.7,-0.6c-0.3,0 -0.7,0.1 -1.1,0.3l-0.3,-0.8c0.6,-0.3 1.1,-0.4 1.7,-0.4c1.1,-0.1 1.7,0.4 1.7,1.3zm-1.2,1.2l0,-0.3l-0.8,0c-0.4,0 -0.5,0.1 -0.5,0.4c0,0.3 0.2,0.4 0.5,0.4c0.4,0 0.7,-0.2 0.8,-0.5z" class="st2"/>
   <path id="svg_74" d="m-1084.2,38.4c0.3,-0.4 0.7,-0.7 1.2,-0.7l0,1.1c-0.7,-0.1 -1.2,0.3 -1.2,0.8l0,1.9l-1.2,0l0,-3.8l1.2,0l0,0.7z" class="st2"/>
   <path id="svg_75" d="m-1079.2,39.1l0,2.5l-1.2,0l0,-0.4c-0.2,0.3 -0.6,0.5 -1.2,0.5c-0.8,0 -1.3,-0.5 -1.3,-1.2c0,-0.7 0.5,-1.1 1.4,-1.1l1,0l0,-0.1c0,-0.4 -0.2,-0.6 -0.7,-0.6c-0.3,0 -0.7,0.1 -1.1,0.3l-0.3,-0.8c0.6,-0.3 1.1,-0.4 1.7,-0.4c1.1,-0.1 1.7,0.4 1.7,1.3zm-1.2,1.2l0,-0.3l-0.8,0c-0.4,0 -0.5,0.1 -0.5,0.4c0,0.3 0.2,0.4 0.5,0.4c0.4,0 0.7,-0.2 0.8,-0.5z" class="st2"/>
   <path id="svg_76" d="m-1075.5,38.2l-0.4,0.8c-0.5,-0.2 -0.9,-0.4 -1.2,-0.4c-0.2,0 -0.4,0.1 -0.4,0.3c0,0.5 2,0.3 2,1.6c0,0.8 -0.7,1.2 -1.6,1.2c-0.6,0 -1.2,-0.2 -1.7,-0.5l0.4,-0.8c0.4,0.3 0.9,0.5 1.3,0.5c0.2,0 0.4,-0.1 0.4,-0.3c0,-0.6 -2,-0.3 -1.9,-1.6c0,-0.8 0.7,-1.2 1.5,-1.2c0.6,-0.1 1.2,0.1 1.6,0.4z" class="st2"/>
   <path id="svg_77" d="m-1071,39.7c0,1.2 -0.8,1.9 -2.1,1.9c-1.2,0 -2.1,-0.8 -2.1,-1.9c0,-1.2 0.8,-1.9 2.1,-1.9c1.3,0 2.1,0.7 2.1,1.9zm-2.9,0c0,0.6 0.3,1 0.8,1c0.5,0 0.8,-0.4 0.8,-1c0,-0.6 -0.3,-1 -0.8,-1c-0.4,0 -0.8,0.4 -0.8,1z" class="st2"/>
   <path id="svg_78" d="m-1070.3,41.6l0,-5.2l1.2,0l0,5.2l-1.2,0z" class="st2"/>
  </g>
  <path id="svg_79" d="m177.149992,91.799969c0,-38.3 -31.1,-69.4 -69.4,-69.4l-12.4,0c-38.3,0 -69.4,31.1 -69.4,69.4l0,7.8l15.9,0l0,-7.8c0,-29.5 24,-53.5 53.5,-53.5l12.4,0c26.8,0 49.1,19.8 52.9,45.6l-52.9,0l0,-20.1l-15.9,0l0,59.9c0,13.7 -11.2,24.9 -24.9,24.9s-24.9,-11.2 -24.9,-24.9l0,-2.2l-15.8,0l0,2.1c0,22.5 18.3,40.8 40.8,40.8c22.5,0 40.8,-18.3 40.8,-40.8l0,-23.8l69.4,0l0,-8l-0.1,0z" class="st4"/>
  <g id="svg_80">
   <path id="svg_81" d="m126.949992,130.699969c0,1.2 -0.9,2.1 -2.1,2.1s-2,-0.8 -2,-2.1c0,-1.2 0.8,-2 2,-2s2.1,0.8 2.1,2z" class="st4"/>
   <path id="svg_82" d="m143.049992,117.099969l-1.6,3.4c-1.8,-1.1 -4.1,-1.8 -5.5,-1.8c-1.1,0 -1.9,0.4 -1.9,1.3c0,3 9.1,1.3 9.1,7.5c0,3.4 -3,5.3 -6.9,5.3c-2.9,0 -5.8,-1.1 -7.9,-2.7l1.7,-3.4c1.8,1.5 4.4,2.6 6.2,2.6c1.4,0 2.2,-0.5 2.2,-1.5c0,-3 -9.1,-1.2 -9.1,-7.3c0,-3.2 2.7,-5.2 6.8,-5.2c2.6,-0.1 5.2,0.7 6.9,1.8z" class="st4"/>
   <path id="svg_83" d="m163.249992,123.999969c0,5 -4,8.8 -9.3,8.8c-5.3,0 -9.3,-3.8 -9.3,-8.8c0,-5 4,-8.7 9.3,-8.7c5.3,0 9.3,3.7 9.3,8.7zm-14.1,0c0,2.9 2.2,5.1 4.9,5.1c2.7,0 4.8,-2.2 4.8,-5.1c0,-2.9 -2.1,-5.1 -4.8,-5.1c-2.7,0 -4.9,2.2 -4.9,5.1z" class="st4"/>
   <path id="svg_84" d="m177.449992,128.899969l0,3.7l-11.7,0l0,-17.2l4.4,0l0,13.5l7.3,0z" class="st4"/>
  </g>
  <g stroke="null" id="svg_85">
   <path stroke="null" id="svg_86" d="m284.649992,30.299969c33.9,0 53.4,16.7 53.4,46.2c0,31 -19.5,49 -53.4,49l-24,0l0,37.3l-33.7,0l0,-132.5l57.7,0zm-24,68.8l22.3,0c14.8,0 23.3,-7.4 23.3,-21.4c0,-13.8 -8.5,-20.8 -23.3,-20.8l-22.3,0l0,42.2z" class="st4"/>
   <path stroke="null" id="svg_87" d="m445.749992,96.199969l0,66.6l-32,0l0,-11.7c-6.6,8.7 -17.4,13.3 -31.2,13.3c-21.8,0 -35,-13.3 -35,-32c0,-19.3 13.8,-30.7 39.2,-30.9l26.9,0l0,-1.5c0,-10 -6.6,-16.1 -19.9,-16.1c-8.5,0 -19.7,3 -30.5,8.5l-9.3,-21.6c15.9,-7.4 30.3,-11.5 47.3,-11.5c28,0 44.3,13.8 44.5,36.9zm-32.2,32l0,-9.1l-20.6,0c-9.8,0 -14.8,3.4 -14.8,11c0,7.4 5.3,12.1 14.4,12.1c10.2,0 18.9,-5.7 21,-14z" class="st4"/>
   <path stroke="null" id="svg_88" d="m501.749992,78.099969c7,-11.9 18.6,-18.6 33.1,-18.7l0,29.5c-18.9,-1.7 -31.4,7.2 -33.1,21.6l0,52.4l-32.7,0l0,-102l32.7,0l0,17.2z" class="st4"/>
   <path stroke="null" id="svg_89" d="m637.349992,96.199969l0,66.6l-32,0l0,-11.7c-6.6,8.7 -17.4,13.3 -31.2,13.3c-21.8,0 -35,-13.3 -35,-32c0,-19.3 13.8,-30.7 39.2,-30.9l26.9,0l0,-1.5c0,-10 -6.6,-16.1 -19.9,-16.1c-8.5,0 -19.7,3 -30.5,8.5l-9.3,-21.6c15.9,-7.4 30.3,-11.5 47.3,-11.5c28,0 44.3,13.8 44.5,36.9zm-32.2,32l0,-9.1l-20.6,0c-9.8,0 -14.8,3.4 -14.8,11c0,7.4 5.3,12.1 14.4,12.1c10.2,0 18.9,-5.7 21,-14z" class="st4"/>
   <path stroke="null" id="svg_90" d="m739.149992,70.899969l-11.2,21.2c-12.3,-6.6 -23.7,-10.2 -32.2,-10.2c-5.9,0 -10,2.3 -10,7c0,14 53.8,7.2 53.6,42.8c0,21 -18.4,32.6 -43,32.6c-17,0 -33.5,-4.9 -45.8,-14.4l10.4,-20.8c11.5,8.1 24.8,12.7 36.2,12.7c6.4,0 11.2,-2.3 11.2,-7c0,-15 -52.8,-7.2 -52.6,-43c0,-21 17.8,-32.4 41.5,-32.4c14.6,-0.1 29.4,4.1 41.9,11.5z" class="st4"/>
   <path stroke="null" id="svg_91" d="m860.649992,111.699969c0,31.4 -22.3,52.2 -55.7,52.2c-33.5,0 -55.8,-20.8 -55.8,-52.2c0,-31.4 22.3,-52.1 55.8,-52.1c33.4,0.1 55.7,20.7 55.7,52.1zm-78.5,0.4c0,15.9 9.3,26.5 22.9,26.5c13.4,0 22.7,-10.6 22.7,-26.5c0,-15.7 -9.3,-26.5 -22.7,-26.5c-13.7,0 -22.9,10.8 -22.9,26.5z" class="st4"/>
   <path stroke="null" id="svg_92" d="m879.249992,162.899969l0,-140.5l32.7,0l0,140.5l-32.7,0z" class="st4"/>
  </g>
  <path id="svg_93" d="m-110.1,274.3c0,-149.7 -121.8,-271.6 -271.6,-271.6l-48.7,0c-149.7,0 -271.6,121.8 -271.6,271.6l0,30.6l62.2,0l0,-30.6c0,-115.5 93.9,-209.4 209.4,-209.4l48.7,0c104.9,0 192,77.5 207.1,178.3l-207.1,0l0,-78.8l-62.2,0l0,234.3c0,53.7 -43.7,97.4 -97.4,97.4s-97.4,-43.7 -97.4,-97.4l0,-8.3l-62.2,0l0,8.3c0,88 71.6,159.6 159.6,159.6c88,0 159.6,-71.6 159.6,-159.6l0,-93.3l271.6,0l0,-31.1z" class="st2"/>
  <g id="svg_94">
   <path id="svg_95" d="m-306.7,426.6c0,4.8 -3.4,8.1 -8.1,8.1s-8,-3.3 -8,-8.1c0,-4.7 3.3,-8 8,-8s8.1,3.3 8.1,8z" class="st2"/>
   <path id="svg_96" d="m-243.5,373.4l-6.4,13.3c-7.1,-4.1 -16,-7 -21.5,-7c-4.4,0 -7.4,1.6 -7.4,4.9c0,11.6 35.5,5 35.5,29.3c0,13.4 -11.9,20.6 -26.9,20.6c-11.2,0 -22.8,-4.2 -30.7,-10.8l6.6,-13.2c6.9,6 17.3,10.1 24.3,10.1c5.4,0 8.7,-2 8.7,-5.9c0,-11.9 -35.5,-4.8 -35.5,-28.6c0,-12.4 10.7,-20.3 26.8,-20.3c9.7,0.1 19.6,3.1 26.5,7.6z" class="st2"/>
   <path id="svg_97" d="m-164.7,400.2c0,19.6 -15.6,34.5 -36.4,34.5c-20.7,0 -36.3,-14.8 -36.3,-34.5c0,-19.6 15.6,-34.1 36.3,-34.1c20.8,0 36.4,14.6 36.4,34.1zm-55.3,0.1c0,11.3 8.7,20.1 19,20.1c10.4,0 18.6,-8.7 18.6,-20.1c0,-11.3 -8.3,-19.9 -18.6,-19.9c-10.3,0 -19,8.6 -19,19.9z" class="st2"/>
   <path id="svg_98" d="m-109.1,419.6l0,14.3l-45.6,0l0,-67.2l17.1,0l0,52.9l28.5,0z" class="st2"/>
  </g>
  <g id="svg_99">
   <path id="svg_100" d="m-646.3,605.2c28.6,0 45,14.1 45,39c0,26.2 -16.5,41.4 -45,41.4l-20.3,0l0,31.4l-28.4,0l0,-111.8l48.7,0zm-20.3,58l18.8,0c12.5,0 19.6,-6.2 19.6,-18c0,-11.7 -7.2,-17.6 -19.6,-17.6l-18.8,0l0,35.6z" class="st2"/>
   <path id="svg_101" d="m-510.4,660.8l0,56.2l-27,0l0,-9.9c-5.6,7.3 -14.7,11.2 -26.4,11.2c-18.4,0 -29.5,-11.2 -29.5,-27c0,-16.3 11.7,-25.9 33.1,-26l22.7,0l0,-1.3c0,-8.5 -5.6,-13.6 -16.8,-13.6c-7.2,0 -16.6,2.6 -25.7,7.2l-7.8,-18.2c13.4,-6.2 25.6,-9.7 39.9,-9.7c23.6,-0.1 37.4,11.6 37.5,31.1zm-27.1,27l0,-7.7l-17.4,0c-8.3,0 -12.5,2.9 -12.5,9.3c0,6.2 4.5,10.2 12.1,10.2c8.7,0 16,-4.8 17.8,-11.8z" class="st2"/>
   <path id="svg_102" d="m-463.1,645.4c5.9,-10.1 15.7,-15.7 28,-15.8l0,24.9c-16,-1.4 -26.5,6.1 -28,18.2l0,44.3l-27.6,0l0,-86.1l27.6,0l0,14.5z" class="st2"/>
   <path id="svg_103" d="m-348.8,660.8l0,56.2l-27,0l0,-9.9c-5.6,7.3 -14.7,11.2 -26.4,11.2c-18.4,0 -29.5,-11.2 -29.5,-27c0,-16.3 11.7,-25.9 33.1,-26l22.7,0l0,-1.3c0,-8.5 -5.6,-13.6 -16.8,-13.6c-7.2,0 -16.6,2.6 -25.7,7.2l-7.8,-18.2c13.4,-6.2 25.6,-9.7 39.9,-9.7c23.6,-0.1 37.4,11.6 37.5,31.1zm-27.1,27l0,-7.7l-17.4,0c-8.3,0 -12.5,2.9 -12.5,9.3c0,6.2 4.5,10.2 12.1,10.2c8.7,0 16,-4.8 17.8,-11.8z" class="st2"/>
   <path id="svg_104" d="m-262.8,639.4l-9.4,17.9c-10.4,-5.6 -20,-8.6 -27.2,-8.6c-5,0 -8.5,1.9 -8.5,5.9c0,11.8 45.4,6.1 45.2,36.1c0,17.7 -15.5,27.5 -36.3,27.5c-14.4,0 -28.3,-4.2 -38.7,-12.1l8.8,-17.6c9.7,6.9 20.9,10.7 30.5,10.7c5.4,0 9.4,-1.9 9.4,-5.9c0,-12.6 -44.6,-6.1 -44.4,-36.3c0,-17.7 15,-27.3 35,-27.3c12.6,-0.1 25,3.4 35.6,9.7z" class="st2"/>
   <path id="svg_105" d="m-160.3,673.9c0,26.5 -18.8,44.1 -47,44.1c-28.3,0 -47.1,-17.6 -47.1,-44.1c0,-26.5 18.8,-43.9 47.1,-43.9c28.2,-0.1 47,17.4 47,43.9zm-66.3,0.3c0,13.4 7.8,22.4 19.3,22.4c11.3,0 19.2,-8.9 19.2,-22.4c0,-13.3 -7.8,-22.4 -19.2,-22.4c-11.5,0 -19.3,9.1 -19.3,22.4z" class="st2"/>
   <path id="svg_106" d="m-144.7,717l0,-118.5l27.6,0l0,118.5l-27.6,0z" class="st2"/>
  </g>
  <path id="svg_107" d="m-793.3,98.3c0,-52.9 -43,-95.8 -95.9,-95.8l-17.2,0c-52.9,0 -95.9,43 -95.9,95.8l0,10.8l22,0l0,-10.8c0,-40.7 33.2,-73.9 73.9,-73.9l17.2,0c37,0 67.8,27.4 73.1,62.9l-73.1,0l0,-27.8l-22,0l0,82.7c0,19 -15.4,34.4 -34.4,34.4c-19,0 -34.4,-15.4 -34.4,-34.4l0,-2.9l-22,0l0,2.9c0,31.1 25.3,56.3 56.3,56.3c31.1,0 56.3,-25.3 56.3,-56.3l0,-32.9l95.9,0l0,-11l0.2,0z" class="st2"/>
  <g id="svg_108">
   <path id="svg_109" d="m-862.7,152.1c0,1.7 -1.2,2.8 -2.8,2.8s-2.8,-1.2 -2.8,-2.8c0,-1.7 1.2,-2.8 2.8,-2.8s2.8,1.1 2.8,2.8z" class="st2"/>
   <path id="svg_110" d="m-840.4,133.3l-2.3,4.7c-2.5,-1.5 -5.7,-2.5 -7.6,-2.5c-1.6,0 -2.6,0.6 -2.6,1.7c0,4.1 12.5,1.8 12.5,10.3c0,4.7 -4.2,7.3 -9.5,7.3c-4,0 -8,-1.5 -10.8,-3.8l2.3,-4.6c2.4,2.1 6.1,3.6 8.6,3.6c1.9,0 3.1,-0.7 3.1,-2.1c0,-4.2 -12.5,-1.7 -12.5,-10.1c0,-4.4 3.8,-7.2 9.5,-7.2c3.4,0 6.9,1.1 9.3,2.7z" class="st2"/>
   <path id="svg_111" d="m-812.6,142.7c0,6.9 -5.5,12.2 -12.8,12.2c-7.3,0 -12.8,-5.2 -12.8,-12.2c0,-6.9 5.5,-12 12.8,-12c7.3,0 12.8,5.2 12.8,12zm-19.5,0.1c0,4 3.1,7.1 6.7,7.1c3.7,0 6.6,-3.1 6.6,-7.1c0,-4 -2.9,-7 -6.6,-7c-3.6,0 -6.7,3 -6.7,7z" class="st2"/>
   <path id="svg_112" d="m-793,149.6l0,5.1l-16.1,0l0,-23.7l6,0l0,18.7l10.1,0l0,-0.1z" class="st2"/>
  </g>
  <g id="svg_113">
   <path id="svg_114" d="m-982.6,215.1c10.1,0 15.9,5 15.9,13.8c0,9.2 -5.8,14.6 -15.9,14.6l-7.2,0l0,11.1l-10,0l0,-39.5l17.2,0zm-7.1,20.5l6.7,0c4.4,0 6.9,-2.2 6.9,-6.4c0,-4.1 -2.5,-6.2 -6.9,-6.2l-6.7,0l0,12.6z" class="st2"/>
   <path id="svg_115" d="m-934.6,234.7l0,19.8l-9.5,0l0,-3.5c-2,2.6 -5.2,3.9 -9.3,3.9c-6.5,0 -10.4,-3.9 -10.4,-9.5c0,-5.7 4.1,-9.1 11.7,-9.2l8,0l0,-0.5c0,-3 -2,-4.8 -5.9,-4.8c-2.5,0 -5.9,0.9 -9.1,2.5l-2.8,-6.4c4.7,-2.2 9,-3.4 14.1,-3.4c8.3,0.1 13.2,4.2 13.2,11.1zm-9.6,9.5l0,-2.7l-6.1,0c-2.9,0 -4.4,1 -4.4,3.3c0,2.2 1.6,3.6 4.3,3.6c3,0 5.6,-1.7 6.2,-4.2z" class="st2"/>
   <path id="svg_116" d="m-917.9,229.3c2.1,-3.6 5.5,-5.5 9.9,-5.6l0,8.8c-5.6,-0.5 -9.4,2.1 -9.9,6.4l0,15.6l-9.8,0l0,-30.4l9.8,0l0,5.2z" class="st2"/>
   <path id="svg_117" d="m-877.5,234.7l0,19.8l-9.5,0l0,-3.5c-2,2.6 -5.2,3.9 -9.3,3.9c-6.5,0 -10.4,-3.9 -10.4,-9.5c0,-5.7 4.1,-9.1 11.7,-9.2l8,0l0,-0.5c0,-3 -2,-4.8 -5.9,-4.8c-2.5,0 -5.9,0.9 -9.1,2.5l-2.8,-6.4c4.7,-2.2 9,-3.4 14.1,-3.4c8.3,0.1 13.1,4.2 13.2,11.1zm-9.6,9.5l0,-2.7l-6.1,0c-2.9,0 -4.4,1 -4.4,3.3c0,2.2 1.6,3.6 4.3,3.6c3,0 5.6,-1.7 6.2,-4.2z" class="st2"/>
   <path id="svg_118" d="m-847.2,227.2l-3.3,6.3c-3.7,-2 -7,-3 -9.6,-3c-1.7,0 -3,0.7 -3,2.1c0,4.2 16,2.1 16,12.7c0,6.3 -5.5,9.7 -12.8,9.7c-5.1,0 -10,-1.5 -13.6,-4.3l3.1,-6.2c3.4,2.4 7.4,3.8 10.8,3.8c1.9,0 3.3,-0.7 3.3,-2.1c0,-4.5 -15.7,-2.1 -15.7,-12.8c0,-6.3 5.3,-9.6 12.3,-9.6c4.4,-0.1 8.8,1.2 12.5,3.4z" class="st2"/>
   <path id="svg_119" d="m-811,239.3c0,9.4 -6.7,15.6 -16.6,15.6c-10,0 -16.6,-6.2 -16.6,-15.6c0,-9.4 6.7,-15.5 16.6,-15.5c9.9,0 16.6,6.2 16.6,15.5zm-23.4,0.1c0,4.7 2.8,7.9 6.8,7.9c4,0 6.8,-3.2 6.8,-7.9c0,-4.7 -2.8,-7.9 -6.8,-7.9c-4.1,0 -6.8,3.3 -6.8,7.9z" class="st2"/>
   <path id="svg_120" d="m-805.5,254.5l0,-41.8l9.8,0l0,41.8l-9.8,0z" class="st2"/>
  </g>
 </g>
</svg>